<mxfile host="Electron" modified="2024-05-24T23:05:19.954Z" agent="Mozilla/5.0 (Macintosh; Intel Mac OS X 10_15_7) AppleWebKit/537.36 (KHTML, like Gecko) draw.io/24.1.0 Chrome/120.0.6099.109 Electron/28.1.0 Safari/537.36" etag="9dn9KkcE0OHVIfnT8Tns" version="24.1.0" type="device">
  <diagram name="Page-1" id="FLJur78pjBhDDRVlXdHe">
    <mxGraphModel dx="1314" dy="924" grid="1" gridSize="10" guides="1" tooltips="1" connect="1" arrows="1" fold="1" page="1" pageScale="1" pageWidth="827" pageHeight="1169" math="0" shadow="0">
      <root>
        <mxCell id="0" />
        <mxCell id="1" parent="0" />
        <mxCell id="cZE8Qb7mz6MfY1SHyTvp-1" value="" style="sketch=0;points=[[0,0,0],[0.25,0,0],[0.5,0,0],[0.75,0,0],[1,0,0],[0,1,0],[0.25,1,0],[0.5,1,0],[0.75,1,0],[1,1,0],[0,0.25,0],[0,0.5,0],[0,0.75,0],[1,0.25,0],[1,0.5,0],[1,0.75,0]];outlineConnect=0;fontColor=#232F3E;fillColor=#E7157B;strokeColor=#ffffff;dashed=0;verticalLabelPosition=bottom;verticalAlign=top;align=center;html=1;fontSize=12;fontStyle=0;aspect=fixed;shape=mxgraph.aws4.resourceIcon;resIcon=mxgraph.aws4.appsync;" vertex="1" parent="1">
          <mxGeometry x="275" y="400" width="78" height="78" as="geometry" />
        </mxCell>
        <mxCell id="cZE8Qb7mz6MfY1SHyTvp-2" value="" style="shape=image;verticalLabelPosition=bottom;labelBackgroundColor=default;verticalAlign=top;aspect=fixed;imageAspect=0;image=https://d29fhpw069ctt2.cloudfront.net/icon/image/38568/preview.svg;" vertex="1" parent="1">
          <mxGeometry x="279" y="290" width="70" height="70" as="geometry" />
        </mxCell>
        <mxCell id="cZE8Qb7mz6MfY1SHyTvp-3" value="AppSync" style="text;html=1;align=center;verticalAlign=middle;resizable=0;points=[];autosize=1;strokeColor=none;fillColor=none;" vertex="1" parent="1">
          <mxGeometry x="279" y="478" width="70" height="30" as="geometry" />
        </mxCell>
        <mxCell id="cZE8Qb7mz6MfY1SHyTvp-4" value="GraphQL" style="text;html=1;align=center;verticalAlign=middle;resizable=0;points=[];autosize=1;strokeColor=none;fillColor=none;" vertex="1" parent="1">
          <mxGeometry x="279" y="360" width="70" height="30" as="geometry" />
        </mxCell>
        <mxCell id="cZE8Qb7mz6MfY1SHyTvp-5" value="" style="sketch=0;points=[[0,0,0],[0.25,0,0],[0.5,0,0],[0.75,0,0],[1,0,0],[0,1,0],[0.25,1,0],[0.5,1,0],[0.75,1,0],[1,1,0],[0,0.25,0],[0,0.5,0],[0,0.75,0],[1,0.25,0],[1,0.5,0],[1,0.75,0]];outlineConnect=0;fontColor=#232F3E;fillColor=#ED7100;strokeColor=#ffffff;dashed=0;verticalLabelPosition=bottom;verticalAlign=top;align=center;html=1;fontSize=12;fontStyle=0;aspect=fixed;shape=mxgraph.aws4.resourceIcon;resIcon=mxgraph.aws4.lambda;" vertex="1" parent="1">
          <mxGeometry x="475" y="400" width="78" height="78" as="geometry" />
        </mxCell>
        <mxCell id="cZE8Qb7mz6MfY1SHyTvp-7" style="edgeStyle=orthogonalEdgeStyle;rounded=0;orthogonalLoop=1;jettySize=auto;html=1;entryX=0;entryY=0.5;entryDx=0;entryDy=0;entryPerimeter=0;" edge="1" parent="1" source="cZE8Qb7mz6MfY1SHyTvp-1" target="cZE8Qb7mz6MfY1SHyTvp-5">
          <mxGeometry relative="1" as="geometry" />
        </mxCell>
        <mxCell id="cZE8Qb7mz6MfY1SHyTvp-8" value="" style="sketch=0;outlineConnect=0;fontColor=#232F3E;gradientColor=none;fillColor=#232F3D;strokeColor=none;dashed=0;verticalLabelPosition=bottom;verticalAlign=top;align=center;html=1;fontSize=12;fontStyle=0;aspect=fixed;pointerEvents=1;shape=mxgraph.aws4.user;" vertex="1" parent="1">
          <mxGeometry x="30" y="260" width="78" height="78" as="geometry" />
        </mxCell>
        <mxCell id="cZE8Qb7mz6MfY1SHyTvp-9" value="" style="sketch=0;outlineConnect=0;fontColor=#232F3E;gradientColor=none;fillColor=#232F3D;strokeColor=none;dashed=0;verticalLabelPosition=bottom;verticalAlign=top;align=center;html=1;fontSize=12;fontStyle=0;aspect=fixed;pointerEvents=1;shape=mxgraph.aws4.user;" vertex="1" parent="1">
          <mxGeometry x="30" y="400" width="78" height="78" as="geometry" />
        </mxCell>
        <mxCell id="cZE8Qb7mz6MfY1SHyTvp-10" value="" style="sketch=0;outlineConnect=0;fontColor=#232F3E;gradientColor=none;fillColor=#232F3D;strokeColor=none;dashed=0;verticalLabelPosition=bottom;verticalAlign=top;align=center;html=1;fontSize=12;fontStyle=0;aspect=fixed;pointerEvents=1;shape=mxgraph.aws4.user;" vertex="1" parent="1">
          <mxGeometry x="30" y="540" width="78" height="78" as="geometry" />
        </mxCell>
        <mxCell id="cZE8Qb7mz6MfY1SHyTvp-11" style="edgeStyle=orthogonalEdgeStyle;rounded=0;orthogonalLoop=1;jettySize=auto;html=1;entryX=0;entryY=0.5;entryDx=0;entryDy=0;entryPerimeter=0;" edge="1" parent="1" source="cZE8Qb7mz6MfY1SHyTvp-9" target="cZE8Qb7mz6MfY1SHyTvp-1">
          <mxGeometry relative="1" as="geometry" />
        </mxCell>
        <mxCell id="cZE8Qb7mz6MfY1SHyTvp-13" value="" style="endArrow=classic;html=1;fontColor=#FF3333;rounded=0;entryX=0;entryY=0;entryDx=0;entryDy=0;entryPerimeter=0;" edge="1" parent="1" target="cZE8Qb7mz6MfY1SHyTvp-1">
          <mxGeometry width="50" height="50" relative="1" as="geometry">
            <mxPoint x="120" y="338" as="sourcePoint" />
            <mxPoint x="170" y="288" as="targetPoint" />
          </mxGeometry>
        </mxCell>
        <mxCell id="cZE8Qb7mz6MfY1SHyTvp-14" value="" style="endArrow=classic;html=1;fontColor=#FF3333;rounded=0;" edge="1" parent="1" target="cZE8Qb7mz6MfY1SHyTvp-1">
          <mxGeometry width="50" height="50" relative="1" as="geometry">
            <mxPoint x="120" y="560" as="sourcePoint" />
            <mxPoint x="280" y="480" as="targetPoint" />
          </mxGeometry>
        </mxCell>
        <mxCell id="cZE8Qb7mz6MfY1SHyTvp-15" value="POST /graphql" style="text;html=1;align=center;verticalAlign=middle;resizable=0;points=[];autosize=1;strokeColor=none;fillColor=none;rotation=23;" vertex="1" parent="1">
          <mxGeometry x="150" y="330" width="100" height="30" as="geometry" />
        </mxCell>
        <mxCell id="cZE8Qb7mz6MfY1SHyTvp-17" value="POST /graphql" style="text;html=1;align=center;verticalAlign=middle;resizable=0;points=[];autosize=1;strokeColor=none;fillColor=none;rotation=-28;" vertex="1" parent="1">
          <mxGeometry x="130" y="490" width="100" height="30" as="geometry" />
        </mxCell>
        <mxCell id="cZE8Qb7mz6MfY1SHyTvp-18" value="POST /graphql" style="text;html=1;align=center;verticalAlign=middle;resizable=0;points=[];autosize=1;strokeColor=none;fillColor=none;rotation=0;" vertex="1" parent="1">
          <mxGeometry x="130" y="410" width="100" height="30" as="geometry" />
        </mxCell>
        <mxCell id="cZE8Qb7mz6MfY1SHyTvp-19" value="&lt;div&gt;Resolver&lt;/div&gt;TooMuchMunch service" style="text;html=1;align=center;verticalAlign=middle;resizable=0;points=[];autosize=1;strokeColor=none;fillColor=none;" vertex="1" parent="1">
          <mxGeometry x="439" y="480" width="150" height="40" as="geometry" />
        </mxCell>
      </root>
    </mxGraphModel>
  </diagram>
</mxfile>
